<svg width="47pt" height="47pt" viewBox="0 0 47 47" xmlns="http://www.w3.org/2000/svg"><g fill="#828282"><path opacity=".82" d="M19.14 0h8.19C37.31 1.97 45.57 10.23 47 20.39v7.03C45.06 37.06 37.35 44.73 27.83 47h-7.86C10.14 45.33 2.32 37.45 0 27.86v-8.61c1.51-5.01 3.83-9.97 7.91-13.42C11.06 2.91 15.14 1.37 19.14 0m.19 1.5C7.8 3.45-.84 15.54 1.38 27.08c1.33 8.63 8.17 16.09 16.67 18.13 5.57 1.63 11.69.5 16.67-2.35 8.4-4.77 13.17-15.41 10.49-24.79C42.68 6.92 30.54-.99 19.33 1.5z"/><path opacity=".82" d="M12.33 11.11c1.71-.37 4.48-.38 4.66 1.91.59 2.01-.61 4.51-2.98 4.02-3.39.7-4.21-4.54-1.68-5.93m.8.93c-2.44 1.11-.77 4.99 1.75 3.91 2.42-1.12.79-4.98-1.75-3.91zM20 13h16v2H20v-2zm-7.74 8.17c2.05-.8 5.3.05 4.78 2.78.42 1.81-1.23 3.49-3.04 3.09-3.33.7-4.2-4.45-1.74-5.87m.81.87c-2.36 1.23-.67 5.01 1.86 3.91 2.38-1.22.67-4.99-1.86-3.91zM20 23h16v2H20v-2zm-7.73 8.14c1.69-.42 4.54-.44 4.72 1.85.58 1.99-.62 4.54-2.99 4.05-3.33.68-4.21-4.49-1.73-5.9m.85.89c-1.27.58-1.64 2.49-.61 3.42 1.03 1.37 3.94.37 3.5-1.49.28-1.58-1.62-2.33-2.89-1.93zM20 33h16v2H20v-2z"/></g></svg>