<svg width="47pt" height="47pt" viewBox="0 0 47 47" xmlns="http://www.w3.org/2000/svg"><g fill="#838383"><path opacity=".83" d="M18.98 0h8.69C37.14 2.12 44.61 9.65 47 19v8.75c-1.52 5-3.83 9.97-7.9 13.41-3.09 2.91-7.15 4.34-11.03 5.84h-8.74C9.86 44.9 2.4 37.36 0 28.03v-8.67c1.36-4.58 3.34-9.14 6.83-12.5C10.1 3.41 14.58 1.55 18.98 0m.39 1.48C10.98 3.01 3.8 9.71 1.8 18.01c-2.11 7.46.39 15.9 5.88 21.29 5.42 5.5 13.89 8.04 21.37 5.89 7.75-1.92 14.21-8.34 16.13-16.1 2.15-7.48-.34-15.97-5.86-21.38-5.08-5.16-12.83-7.72-19.95-6.23z"/><path opacity=".83" d="M12.04 10.14c7.28-.79 14.58-1.36 21.88-1.85 1.8.06.83 2.62 1.11 3.73-.07 8.22-.01 16.44-.03 24.66-.8-.97-1.43-2.19-1.08-3.51.06-7.82.23-15.65-.07-23.46l-1.31-.84c1.15 9.66-.08 19.44.73 29.13-7.08-.03-14.15.06-21.23-.03-.08-9.28-.07-18.56 0-27.83m.98.87c-.03 8.66-.02 17.32-.02 25.98 6.31.01 12.62.02 18.93 0 0-8.66-.01-17.31.01-25.97-6.31-.04-12.62-.02-18.92-.01z"/><path opacity=".83" d="M19.52 14.65c4.27-2.55 10.24 1.54 9.52 6.44-.19 4.62-6.11 7.73-9.96 5-4.35-2.37-4.08-9.4.44-11.44m1.69.56c-3.48.91-5.6 5.54-3.06 8.43 2.15 3.35 7.46 2.87 9.13-.68 2.45-3.75-1.94-9.03-6.07-7.75zm-5.17 15.85c4.3-.12 8.62-.12 12.92 0 .01.72.02 2.16.02 2.88-4.31.12-8.62.1-12.92.02-.01-.73-.02-2.18-.02-2.9m.96.95l.02.98c3.65.01 7.31.01 10.96.01l.02-.99c-3.67-.01-7.33-.01-11 0z"/></g></svg>