<svg width="47pt" height="47pt" viewBox="0 0 47 47" xmlns="http://www.w3.org/2000/svg"><g fill="#8e8e8e"><path opacity=".9" d="M19.07 0h7.97c9.95 1.81 18 9.87 19.96 19.76v9.2l-.39-1.06c-1.65 9.71-9.93 17.16-19.39 19.1h-7.26c-5.97-1.36-11.74-4.41-15.35-9.48-2.23-2.82-3.26-6.3-4.61-9.57v-7.96C1.73 10.17 9.56 2.48 19.07 0m3.01 1.06c-9.14.56-17.55 7.19-20.07 16.01-2.4 7.5-.26 16.14 5.18 21.79 5.39 5.82 14.05 8.51 21.75 6.4 7.83-1.89 14.35-8.35 16.29-16.18 2.07-7.49-.32-15.95-5.85-21.39-4.46-4.55-10.94-7.01-17.3-6.63z"/><path opacity=".9" d="M9.08 11.12c2.49-2.44 6.76-.5 9.96-1.18 2 3.55.62 8.02.87 11.94-2.42 2.36-6.63.7-9.77 1.03-.26-.26-.79-.78-1.06-1.04-.17-3.58-.16-7.18 0-10.75m1.02-.02c-.12 3.59-.12 7.19.01 10.78 2.92.14 5.84.13 8.76.02.17-3.59.13-7.18.05-10.78-2.94-.14-5.88-.13-8.82-.02zM22 10h16v2H22v-2zm0 6h16v2H22v-2zm0 6h16v2H22v-2zM9 28h29v2H9v-2zm0 6h29v2H9v-2z"/></g></svg>