<svg width="47pt" height="47pt" viewBox="0 0 47 47" xmlns="http://www.w3.org/2000/svg"><g fill="#878787"><path opacity=".85" d="M19.95 0h6.42C36.77 1.33 45.38 9.91 47 20.24v8.7L46.99 27c-1.72 10.04-9.92 18.22-19.93 20h-6.72C10.15 45.5 1.81 37.16 0 27.08v-6.65C1.45 10.2 9.83 1.81 19.95 0m.24 1.31C7.63 2.92-1.76 16.53 1.74 28.82 4.3 40.49 17.38 48.57 28.93 45.23c11.61-2.62 19.61-15.61 16.31-27.13C42.77 7.22 31.22-.59 20.19 1.31z"/><path opacity=".85" d="M17.24 15c.69 0 2.07-.01 2.76-.01-.1 4.25.22 8.53-.12 12.77-1.49 5.17-10.41 4.02-10.07-1.6.64.01 1.93.02 2.57.03.54 1.22 1.38 2.22 2.52 2.9.53-.32 1.59-.95 2.13-1.27.36-4.27.19-8.55.21-12.82zm6.81 2.17c3-3.9 10.56-2.64 11.21 2.6-.68.03-2.02.08-2.69.1-.91-3.16-4.75-3.36-6.64-1.01 1.88 3.6 6.96 2.84 9.19 6.23 1.42 7.71-11.81 7.95-12.37.91.71.01 2.13.01 2.83.01.69 3.09 4.38 3.34 6.65 1.89.28-3.67-3.93-3.49-6.27-4.91-2.29-.83-3.27-3.79-1.91-5.82z"/></g></svg>