<?xml version="1.0" encoding="UTF-8" ?>
<!DOCTYPE svg PUBLIC "-//W3C//DTD SVG 1.1//EN" "http://www.w3.org/Graphics/SVG/1.1/DTD/svg11.dtd">
<svg width="47pt" height="47pt" viewBox="0 0 47 47" version="1.1" xmlns="http://www.w3.org/2000/svg">
<g id="#878787d9">
<path fill="#878787" opacity="0.85" d=" M 19.95 0.00 L 26.37 0.00 C 36.77 1.33 45.38 9.91 47.00 20.24 L 47.00 28.94 L 46.99 27.00 C 45.27 37.04 37.07 45.22 27.06 47.00 L 20.34 47.00 C 10.15 45.50 1.81 37.16 0.00 27.08 L 0.00 20.43 C 1.45 10.20 9.83 1.81 19.95 0.00 M 20.19 1.31 C 7.63 2.92 -1.76 16.53 1.74 28.82 C 4.30 40.49 17.38 48.57 28.93 45.23 C 40.54 42.61 48.54 29.62 45.24 18.10 C 42.77 7.22 31.22 -0.59 20.19 1.31 Z" />
<path fill="#878787" opacity="0.85" d=" M 17.24 15.00 C 17.93 15.00 19.31 14.99 20.00 14.99 C 19.90 19.24 20.22 23.52 19.88 27.76 C 18.39 32.93 9.47 31.78 9.81 26.16 C 10.45 26.17 11.74 26.18 12.38 26.19 C 12.92 27.41 13.76 28.41 14.90 29.09 C 15.43 28.77 16.49 28.14 17.03 27.82 C 17.39 23.55 17.22 19.27 17.24 15.00 Z" />
<path fill="#878787" opacity="0.85" d=" M 24.05 17.17 C 27.05 13.27 34.61 14.53 35.26 19.77 C 34.58 19.80 33.24 19.85 32.57 19.87 C 31.66 16.71 27.82 16.51 25.93 18.86 C 27.81 22.46 32.89 21.70 35.12 25.09 C 36.54 32.80 23.31 33.04 22.75 26.00 C 23.46 26.01 24.88 26.01 25.58 26.01 C 26.27 29.10 29.96 29.35 32.23 27.90 C 32.51 24.23 28.30 24.41 25.96 22.99 C 23.67 22.16 22.69 19.20 24.05 17.17 Z" />
</g>
</svg>
