<?xml version="1.0" encoding="UTF-8" ?>
<!DOCTYPE svg PUBLIC "-//W3C//DTD SVG 1.1//EN" "http://www.w3.org/Graphics/SVG/1.1/DTD/svg11.dtd">
<svg width="47pt" height="47pt" viewBox="0 0 47 47" version="1.1" xmlns="http://www.w3.org/2000/svg">
<g id="#8e8e8ee5">
<path fill="#8e8e8e" opacity="0.90" d=" M 19.07 0.00 L 27.04 0.00 C 36.99 1.81 45.04 9.87 47.00 19.76 L 47.00 28.96 L 46.61 27.90 C 44.96 37.61 36.68 45.06 27.22 47.00 L 19.96 47.00 C 13.99 45.64 8.22 42.59 4.61 37.52 C 2.38 34.70 1.35 31.22 0.00 27.95 L 0.00 19.99 C 1.73 10.17 9.56 2.48 19.07 0.00 M 22.08 1.06 C 12.94 1.62 4.53 8.25 2.01 17.07 C -0.39 24.57 1.75 33.21 7.19 38.86 C 12.58 44.68 21.24 47.37 28.94 45.26 C 36.77 43.37 43.29 36.91 45.23 29.08 C 47.30 21.59 44.91 13.13 39.38 7.69 C 34.92 3.14 28.44 0.68 22.08 1.06 Z" />
<path fill="#8e8e8e" opacity="0.90" d=" M 9.08 11.12 C 11.57 8.68 15.84 10.62 19.04 9.94 C 21.04 13.49 19.66 17.96 19.91 21.88 C 17.49 24.24 13.28 22.58 10.14 22.91 C 9.88 22.65 9.35 22.13 9.08 21.87 C 8.91 18.29 8.92 14.69 9.08 11.12 M 10.10 11.10 C 9.98 14.69 9.98 18.29 10.11 21.88 C 13.03 22.02 15.95 22.01 18.87 21.90 C 19.04 18.31 19.00 14.72 18.92 11.12 C 15.98 10.98 13.04 10.99 10.10 11.10 Z" />
<path fill="#8e8e8e" opacity="0.90" d=" M 22.00 10.00 C 27.33 10.00 32.67 10.00 38.00 10.00 C 38.00 10.50 38.00 11.50 38.00 12.00 C 32.67 12.00 27.33 12.00 22.00 12.00 C 22.00 11.50 22.00 10.50 22.00 10.00 Z" />
<path fill="#8e8e8e" opacity="0.90" d=" M 22.00 16.00 C 27.33 16.00 32.67 16.00 38.00 16.00 C 38.00 16.50 38.00 17.50 38.00 18.00 C 32.67 18.00 27.33 18.00 22.00 18.00 C 22.00 17.50 22.00 16.50 22.00 16.00 Z" />
<path fill="#8e8e8e" opacity="0.90" d=" M 22.00 22.00 C 27.33 22.00 32.67 22.00 38.00 22.00 C 38.00 22.50 38.00 23.50 38.00 24.00 C 32.67 24.00 27.33 24.00 22.00 24.00 C 22.00 23.50 22.00 22.50 22.00 22.00 Z" />
<path fill="#8e8e8e" opacity="0.90" d=" M 9.00 28.00 C 18.67 28.00 28.33 28.00 38.00 28.00 C 38.00 28.50 38.00 29.50 38.00 30.00 C 28.33 30.00 18.67 30.00 9.00 30.00 C 9.00 29.50 9.00 28.50 9.00 28.00 Z" />
<path fill="#8e8e8e" opacity="0.90" d=" M 9.00 34.00 C 18.67 34.00 28.33 34.00 38.00 34.00 C 38.00 34.50 38.00 35.50 38.00 36.00 C 28.33 36.00 18.67 36.00 9.00 36.00 C 9.00 35.50 9.00 34.50 9.00 34.00 Z" />
</g>
</svg>
