<?xml version="1.0" encoding="UTF-8" ?>
<!DOCTYPE svg PUBLIC "-//W3C//DTD SVG 1.1//EN" "http://www.w3.org/Graphics/SVG/1.1/DTD/svg11.dtd">
<svg width="47pt" height="47pt" viewBox="0 0 47 47" version="1.1" xmlns="http://www.w3.org/2000/svg">
<g id="#828282d1">
<path fill="#828282" opacity="0.82" d=" M 19.14 0.00 L 27.33 0.00 C 37.31 1.97 45.57 10.23 47.00 20.39 L 47.00 27.42 C 45.06 37.06 37.35 44.73 27.83 47.00 L 19.97 47.00 C 10.14 45.33 2.32 37.45 0.00 27.86 L 0.00 19.25 C 1.51 14.24 3.83 9.28 7.91 5.83 C 11.06 2.91 15.14 1.37 19.14 0.00 M 19.33 1.50 C 7.80 3.45 -0.84 15.54 1.38 27.08 C 2.71 35.71 9.55 43.17 18.05 45.21 C 23.62 46.84 29.74 45.71 34.72 42.86 C 43.12 38.09 47.89 27.45 45.21 18.07 C 42.68 6.92 30.54 -0.99 19.33 1.50 Z" />
<path fill="#828282" opacity="0.82" d=" M 12.33 11.11 C 14.04 10.74 16.81 10.73 16.99 13.02 C 17.58 15.03 16.38 17.53 14.01 17.04 C 10.62 17.74 9.80 12.50 12.33 11.11 M 13.13 12.04 C 10.69 13.15 12.36 17.03 14.88 15.95 C 17.30 14.83 15.67 10.97 13.13 12.04 Z" />
<path fill="#828282" opacity="0.82" d=" M 20.00 13.00 C 25.33 13.00 30.67 13.00 36.00 13.00 C 36.00 13.50 36.00 14.50 36.00 15.00 C 30.67 15.00 25.33 15.00 20.00 15.00 C 20.00 14.50 20.00 13.50 20.00 13.00 Z" />
<path fill="#828282" opacity="0.82" d=" M 12.26 21.17 C 14.31 20.37 17.56 21.22 17.04 23.95 C 17.46 25.76 15.81 27.44 14.00 27.04 C 10.67 27.74 9.80 22.59 12.26 21.17 M 13.07 22.04 C 10.71 23.27 12.40 27.05 14.93 25.95 C 17.31 24.73 15.60 20.96 13.07 22.04 Z" />
<path fill="#828282" opacity="0.82" d=" M 20.00 23.00 C 25.33 23.00 30.67 23.00 36.00 23.00 C 36.00 23.50 36.00 24.50 36.00 25.00 C 30.67 25.00 25.33 25.00 20.00 25.00 C 20.00 24.50 20.00 23.50 20.00 23.00 Z" />
<path fill="#828282" opacity="0.82" d=" M 12.27 31.14 C 13.96 30.72 16.81 30.70 16.99 32.99 C 17.57 34.98 16.37 37.53 14.00 37.04 C 10.67 37.72 9.79 32.55 12.27 31.14 M 13.12 32.03 C 11.85 32.61 11.48 34.52 12.51 35.45 C 13.54 36.82 16.45 35.82 16.01 33.96 C 16.29 32.38 14.39 31.63 13.12 32.03 Z" />
<path fill="#828282" opacity="0.82" d=" M 20.00 33.00 C 25.33 33.00 30.67 33.00 36.00 33.00 C 36.00 33.50 36.00 34.50 36.00 35.00 C 30.67 35.00 25.33 35.00 20.00 35.00 C 20.00 34.50 20.00 33.50 20.00 33.00 Z" />
</g>
</svg>
