<?xml version="1.0" encoding="UTF-8" ?>
<!DOCTYPE svg PUBLIC "-//W3C//DTD SVG 1.1//EN" "http://www.w3.org/Graphics/SVG/1.1/DTD/svg11.dtd">
<svg width="47pt" height="47pt" viewBox="0 0 47 47" version="1.1" xmlns="http://www.w3.org/2000/svg">
<g id="#838383d3">
<path fill="#838383" opacity="0.83" d=" M 18.98 0.00 L 27.67 0.00 C 37.14 2.12 44.61 9.65 47.00 19.00 L 47.00 27.75 C 45.48 32.75 43.17 37.72 39.10 41.16 C 36.01 44.07 31.95 45.50 28.07 47.00 L 19.33 47.00 C 9.86 44.90 2.40 37.36 0.00 28.03 L 0.00 19.36 C 1.36 14.78 3.34 10.22 6.83 6.86 C 10.10 3.41 14.58 1.55 18.98 0.00 M 19.37 1.48 C 10.98 3.01 3.80 9.71 1.80 18.01 C -0.31 25.47 2.19 33.91 7.68 39.30 C 13.10 44.80 21.57 47.34 29.05 45.19 C 36.80 43.27 43.26 36.85 45.18 29.09 C 47.33 21.61 44.84 13.12 39.32 7.71 C 34.24 2.55 26.49 -0.01 19.37 1.48 Z" />
<path fill="#838383" opacity="0.83" d=" M 12.04 10.14 C 19.32 9.35 26.62 8.78 33.92 8.29 C 35.72 8.35 34.75 10.91 35.03 12.02 C 34.96 20.24 35.02 28.46 35.00 36.68 C 34.20 35.71 33.57 34.49 33.92 33.17 C 33.98 25.35 34.15 17.52 33.85 9.71 L 32.54 8.87 C 33.69 18.53 32.46 28.31 33.27 38.00 C 26.19 37.97 19.12 38.06 12.04 37.97 C 11.96 28.69 11.97 19.41 12.04 10.14 M 13.02 11.01 C 12.99 19.67 13.00 28.33 13.00 36.99 C 19.31 37.00 25.62 37.01 31.93 36.99 C 31.93 28.33 31.92 19.68 31.94 11.02 C 25.63 10.98 19.32 11.00 13.02 11.01 Z" />
<path fill="#838383" opacity="0.83" d=" M 19.52 14.65 C 23.79 12.10 29.76 16.19 29.04 21.09 C 28.85 25.71 22.93 28.82 19.08 26.09 C 14.73 23.72 15.00 16.69 19.52 14.65 M 21.21 15.21 C 17.73 16.12 15.61 20.75 18.15 23.64 C 20.30 26.99 25.61 26.51 27.28 22.96 C 29.73 19.21 25.34 13.93 21.21 15.21 Z" />
<path fill="#838383" opacity="0.83" d=" M 16.04 31.06 C 20.34 30.94 24.66 30.94 28.96 31.06 C 28.97 31.78 28.98 33.22 28.98 33.94 C 24.67 34.06 20.36 34.04 16.06 33.96 C 16.05 33.23 16.04 31.78 16.04 31.06 M 17.00 32.01 L 17.02 32.99 C 20.67 33.00 24.33 33.00 27.98 33.00 L 28.00 32.01 C 24.33 32.00 20.67 32.00 17.00 32.01 Z" />
</g>
</svg>
